<?xml version="1.0" standalone="no"?>
<!DOCTYPE svg PUBLIC "-//W3C//DTD SVG 20010904//EN"
 "http://www.w3.org/TR/2001/REC-SVG-20010904/DTD/svg10.dtd">
<svg version="1.0" xmlns="http://www.w3.org/2000/svg"
 width="700.000000pt" height="700.000000pt" viewBox="0 0 700.000000 700.000000"
 preserveAspectRatio="xMidYMid meet">
<metadata>
Created by potrace 1.14, written by Peter Selinger 2001-2017
</metadata>
<g transform="translate(0.000000,700.000000) scale(0.100000,-0.100000)"
fill="#000000" stroke="none">
<path d="M4909 6706 c-2 -2 -35 -6 -72 -10 -228 -21 -514 -125 -723 -262 -49
-32 -91 -60 -94 -63 -3 -3 -27 -24 -55 -46 -79 -62 -1494 -1481 -1560 -1565
-123 -153 -237 -373 -291 -556 -28 -96 -29 -101 -44 -184 -5 -30 -12 -68 -15
-85 -17 -84 -11 -385 9 -490 3 -16 8 -43 11 -60 44 -236 177 -519 338 -720 71
-88 231 -238 328 -307 52 -37 144 -93 205 -124 94 -48 121 -57 180 -61 222
-16 400 160 389 381 -8 137 -81 244 -216 315 -192 100 -327 234 -423 421 -78
150 -107 281 -102 460 6 189 65 365 173 517 63 88 1447 1473 1535 1537 240
171 570 220 849 126 280 -95 504 -318 597 -595 35 -105 44 -157 47 -275 6
-209 -45 -387 -162 -563 -29 -43 -158 -181 -354 -378 -188 -188 -318 -327
-331 -352 -73 -143 -53 -307 52 -421 117 -126 284 -154 445 -73 40 20 593 565
691 682 184 218 327 526 370 800 17 108 21 187 19 310 -5 173 -11 222 -60 425
-21 90 -145 370 -181 411 -8 8 -14 19 -14 23 0 4 -32 51 -71 104 -133 181
-335 358 -532 468 -84 47 -250 120 -305 134 -148 38 -202 51 -237 56 -22 3
-51 8 -65 10 -33 6 -326 14 -331 10z"/>
<path d="M3733 4811 c-154 -53 -247 -185 -247 -348 1 -146 76 -260 224 -337
244 -127 412 -335 486 -602 25 -87 28 -116 28 -244 0 -120 -4 -159 -23 -230
-30 -107 -77 -211 -138 -302 -58 -89 -1444 -1479 -1545 -1551 -281 -201 -664
-230 -973 -74 -332 166 -533 504 -520 872 2 61 6 124 10 140 30 146 85 275
160 381 25 35 183 201 350 369 358 359 368 373 368 523 0 73 -4 96 -26 144
-87 192 -302 271 -495 183 -45 -21 -110 -81 -376 -348 -177 -177 -347 -357
-379 -400 -166 -222 -269 -456 -318 -725 -23 -124 -31 -352 -17 -484 9 -80 39
-223 66 -310 117 -376 378 -713 717 -925 51 -32 229 -123 241 -123 3 0 20 -6
37 -14 88 -40 283 -89 413 -103 121 -14 445 -5 474 12 3 2 23 6 45 9 234 37
568 199 763 369 71 62 1448 1443 1503 1507 131 153 246 359 311 555 20 61 39
124 42 140 3 17 13 68 21 115 19 100 26 343 14 450 -14 121 -38 225 -79 350
-125 382 -378 698 -730 910 -178 107 -289 132 -407 91z"/>
</g>
</svg>
